HIERARCHY
ROOT hip
{
	OFFSET 0.000000 0.000000 0.000000 
	CHANNELS 6 Xposition Yposition Zposition Xrotation Zrotation Yrotation
	JOINT abdomen
	{
		OFFSET 0.000000 3.402643 0.000000 
		CHANNELS 3 Xrotation Zrotation Yrotation
		JOINT chest
		{
			OFFSET 0.000000 8.438565 -0.680529 
			CHANNELS 3 Xrotation Zrotation Yrotation
			JOINT neck
			{
				OFFSET 0.000000 10.207942 -0.272212 
				CHANNELS 3 Xrotation Zrotation Yrotation
				JOINT head
				{
					OFFSET 0.000000 3.130431 0.000000 
					CHANNELS 3 Xrotation Zrotation Yrotation
					End Site
					{
						OFFSET 0.000000 3.130435 0.000000 
					}
				}
			}
			JOINT lCollar
			{
				OFFSET 3.470700 6.669187 -0.816635 
				CHANNELS 3 Yrotation Zrotation Xrotation
				JOINT lShldr
				{
					OFFSET 3.198488 0.000000 0.000000 
					CHANNELS 3 Zrotation Yrotation Xrotation
					JOINT lForeArm
					{
						OFFSET 10.139888 0.000000 0.000000 
						CHANNELS 3 Yrotation Zrotation Xrotation
						JOINT lHand
						{
							OFFSET 8.370511 0.000000 0.000000 
							CHANNELS 3 Zrotation Yrotation Xrotation
							End Site
							{
								OFFSET 4.083176 0.000000 0.000000 
							}
						}
					}
				}
			}
			JOINT rCollar
			{
				OFFSET -3.470700 6.669187 -0.816635 
				CHANNELS 3 Yrotation Zrotation Xrotation
				JOINT rShldr
				{
					OFFSET -3.198488 0.000000 0.000000 
					CHANNELS 3 Zrotation Yrotation Xrotation
					JOINT rForeArm
					{
						OFFSET -10.139888 0.000000 0.000000 
						CHANNELS 3 Yrotation Zrotation Xrotation
						JOINT rHand
						{
							OFFSET -8.370511 0.000000 0.000000 
							CHANNELS 3 Zrotation Yrotation Xrotation
							End Site
							{
								OFFSET -4.083176 0.000000 0.000000 
							}
						}
					}
				}
			}
		}
	}
	JOINT lThigh
	{
		OFFSET 5.308129 -1.633274 1.361059 
		CHANNELS 3 Xrotation Zrotation Yrotation
		JOINT lShin
		{
			OFFSET -2.041588 -20.007561 0.000000 
			CHANNELS 3 Xrotation Zrotation Yrotation
			JOINT lFoot
			{
				OFFSET 0.000000 -19.190928 -1.224953 
				CHANNELS 3 Xrotation Yrotation Zrotation
				End Site
				{
					OFFSET 0.000000 -2.449906 4.627600 
				}
			}
		}
	}
	JOINT rThigh
	{
		OFFSET -5.308129 -1.633274 1.361059 
		CHANNELS 3 Xrotation Zrotation Yrotation
		JOINT rShin
		{
			OFFSET 2.041588 -20.007561 0.000000 
			CHANNELS 3 Xrotation Zrotation Yrotation
			JOINT rFoot
			{
				OFFSET 0.000000 -19.190928 -1.224953 
				CHANNELS 3 Xrotation Yrotation Zrotation
				End Site
				{
					OFFSET 0.000000 -2.449906 4.627600 
				}
			}
		}
	}
}
MOTION
Frames: 11
Frame Time: 0.033333
-4.852233 41.130539 39.856739 -16.718750 -22.158205 112.431641 19.687502 2.109375 7.529656 -21.445313 2.373047 6.572670 -17.099609 0.107422 22.978527 12.812500 -9.833629 22.499140 3.154297 1.669922 0.058594 -64.462891 28.769531 -13.247252 -121.494133 -3.427734 -65.634186 41.328136 -141.962891 -27.261879 -3.847656 -5.410157 0.166016 18.232424 54.501957 -82.404160 118.964844 3.593750 -80.635376 9.726563 13.076173 2.558593 -70.943840 34.529552 -0.049041 53.139812 -0.421951 -3.205999 -10.332386 -4.267225 -5.934186 -43.144333 -25.576124 -12.291574 55.934956 -0.400404 3.049845 -20.292891 -0.865393 4.703162 
-4.875507 41.188847 40.037903 -17.050779 -21.992186 113.111580 19.345703 2.373047 7.246499 -21.621094 2.373047 6.396889 -16.757811 0.449219 22.929764 12.480469 -9.833984 22.449505 3.154297 1.669922 0.058594 -64.462898 27.500000 -15.390622 -121.845695 -3.515625 -67.958389 42.011730 -142.236328 -27.701290 -3.486328 -5.410212 0.186462 18.554689 54.169926 -81.818253 119.238289 3.505860 -80.361931 9.208985 13.447266 2.541333 -70.885391 34.148796 -0.361538 52.239960 -0.119212 -3.357701 -10.134398 -4.533895 -6.029309 -42.817802 -25.074284 -12.016412 55.585743 -0.429767 2.700677 -20.776039 -2.376906 4.445325 
-4.878814 41.201584 40.288040 -17.412111 -21.816406 113.476563 19.179688 2.666016 6.962891 -21.621094 2.197266 6.045296 -16.572266 0.996094 23.047047 12.294923 -9.667969 22.625311 2.978516 1.835938 0.058594 -64.501953 26.845705 -17.847151 -122.421883 -3.486328 -70.068550 43.466805 -142.890625 -28.443390 -2.988281 -5.029297 0.088747 19.306639 53.544922 -80.849609 119.238289 3.505860 -80.361931 8.818359 13.486328 2.353515 -70.859161 34.316387 -0.615468 51.379658 -0.450947 -2.965432 -9.742025 -5.525894 -6.114683 -42.614388 -24.363016 -11.750270 55.783497 -0.409986 2.912591 -21.113894 -3.313586 3.828088 
-4.876609 41.194477 40.552261 -17.402344 -21.640625 113.463196 19.033203 2.734375 6.826637 -21.621094 2.011719 5.869483 -16.767578 1.201172 23.173830 12.304688 -9.482422 22.812500 2.812500 1.494141 -0.107677 -64.716797 26.542971 -20.649933 -122.958977 -3.583984 -71.727905 44.785168 -143.496094 -29.205029 -2.812500 -4.873047 0.117188 19.687500 52.783203 -80.058594 119.335930 3.603516 -80.693359 8.476563 13.496094 2.336263 -70.730904 34.686771 -0.613237 50.647491 -0.267450 -3.397803 -9.296769 -5.204484 -6.134429 -42.798851 -23.649340 -11.242853 55.941128 -0.400245 2.885653 -21.521271 -4.515211 3.477714 
-4.865952 41.171574 40.757431 -17.402344 -21.455078 113.287445 19.033203 2.792969 6.650867 -21.816404 1.835938 5.683906 -16.738279 1.572266 23.330347 12.304688 -9.482422 22.988283 2.812500 1.308594 -0.097879 -64.863281 26.289064 -22.690987 -123.300789 -3.427734 -71.845703 45.527363 -143.505859 -30.113232 -2.275390 -4.326172 0.186284 19.580080 51.708984 -79.855621 119.560547 3.476563 -81.211533 8.085938 13.554688 2.138672 -70.298401 35.446972 -0.729195 50.321877 -0.560016 -2.786406 -9.199160 -5.653327 -6.136126 -42.844254 -23.167955 -11.422272 56.110161 -0.410100 3.062167 -21.662401 -4.784865 3.149126 
-4.837166 41.137272 40.853836 -17.236328 -21.103516 112.935944 19.228516 2.841797 6.494625 -21.640625 1.835938 5.498359 -16.757811 1.933594 23.457361 12.480469 -9.658202 23.152660 2.978516 0.966797 -0.078290 -64.931641 26.035156 -24.023438 -123.828117 -3.613281 -71.083366 45.537117 -142.626938 -30.455145 -2.119140 -3.798828 0.029944 19.970703 50.869141 -79.433594 119.765633 3.652344 -81.943985 7.539063 13.056641 2.072520 -69.653938 35.896187 -0.068609 50.161983 -0.470024 -2.854384 -9.225183 -4.386544 -5.935617 -42.538055 -23.016888 -11.033167 56.110279 -0.390574 3.072110 -21.839617 -4.958112 2.787896 
-4.814504 41.098320 40.831173 -17.070311 -20.751951 112.477013 19.228516 2.841797 6.494625 -21.640625 1.835938 5.342110 -16.757813 2.109375 23.417971 12.294923 -9.667969 23.152657 3.164063 0.791016 -0.078260 -64.980469 25.917969 -24.985962 -124.121094 -3.535156 -69.794319 45.107445 -141.865234 -30.513845 -1.767578 -3.271484 0.068359 20.546875 49.941406 -78.752296 120.214844 3.603516 -82.207031 7.324219 12.910156 1.896715 -69.342827 36.453445 0.940915 50.150928 -0.443035 -2.880564 -9.358134 -1.576810 -5.383792 -42.138519 -23.007874 -11.089581 55.934620 -0.395048 3.062197 -21.867462 -4.607204 3.014921 
-4.794295 41.062187 40.684429 -17.050779 -20.400389 112.232925 19.238283 2.900391 6.328619 -21.816404 1.835938 5.322578 -16.386719 2.138672 23.613642 12.294923 -9.667969 23.328436 3.164063 0.263672 -0.048873 -64.892578 25.986330 -26.030876 -124.248039 -3.349609 -68.856850 45.234375 -141.328125 -30.914303 -1.425781 -2.910156 0.107918 21.474609 48.886719 -77.482872 120.625008 3.447266 -82.217308 7.148438 13.095703 1.886980 -69.072945 37.006210 1.744637 50.667728 -0.267433 -3.379416 -9.373394 2.013409 -4.874215 -41.569065 -22.956537 -11.000695 55.595074 -0.439604 2.705797 -21.862499 -4.527938 3.323988 
-4.787066 41.004616 40.400360 -17.050779 -20.400389 111.881363 19.238283 2.900391 6.328619 -21.982420 2.197266 5.332406 -15.683591 1.962891 23.633148 12.128906 -9.501954 23.318697 3.164063 -0.283203 -0.175733 -64.892578 25.898438 -27.163704 -124.609367 -3.486328 -69.169525 46.123066 -141.601563 -31.539272 -1.064453 -2.568359 0.117625 22.216797 48.056641 -76.525940 120.976570 3.476563 -82.217392 7.324219 13.085938 1.886977 -69.303322 37.292915 2.577403 51.855202 -0.470732 -3.327808 -8.733345 3.405018 -4.793000 -41.315308 -23.025003 -10.893272 54.878780 -0.234373 2.912372 -21.829130 -4.930283 2.997054 
-4.785965 40.915440 39.997490 -17.050779 -20.400389 111.705582 18.886719 2.900391 6.328125 -21.992186 2.373047 5.342201 -15.341797 1.962891 23.633150 12.128906 -9.326173 23.318729 2.978516 -0.625000 -0.156143 -65.166016 25.810547 -27.866840 -124.882813 -3.457031 -68.915428 46.123066 -141.601563 -31.539272 -0.908203 -2.207031 -0.048828 22.841797 47.041019 -75.744804 121.572273 3.476563 -82.363869 7.333985 13.261719 1.896773 -70.074104 37.507271 3.017386 53.313370 -0.304894 -3.487932 -8.958610 3.167669 -4.535490 -40.891323 -23.158392 -10.529793 54.184242 -0.224490 2.934606 -21.422819 -5.151238 3.293752 
-4.792823 40.805927 39.513268 -17.236328 -20.390625 111.611328 18.701172 2.841797 6.494625 -22.148438 2.373047 5.342201 -15.000000 2.119140 23.427734 12.304688 -9.316406 23.173830 2.802735 -0.800781 -0.146348 -65.556641 25.625000 -28.307915 -125.214836 -3.564453 -67.811897 46.269531 -141.074219 -31.949493 -0.537109 -1.689453 -0.019531 23.867189 46.054688 -74.895309 122.167976 3.476563 -82.529884 7.490234 12.890624 1.904297 -70.860802 37.621582 3.432329 55.247177 -0.267961 -3.257070 -9.708003 2.682017 -4.563906 -40.455704 -23.561802 -10.504490 53.307713 -0.039038 2.955399 -21.452599 -5.012084 3.006229 
